<svg xmlns="http://www.w3.org/2000/svg"  viewBox="0 0 32 32" width="32px" height="32px"><path fill="#ed0049" d="M16,27c-2.783,0-5.32-1.047-7.26-2.758L5.913,27.07C8.58,29.502,12.114,31,16,31 c3.394,0,6.517-1.146,9.033-3.053l-2.856-2.856C20.414,26.292,18.29,27,16,27z"/><path fill="#ed0049" d="M16,5c2.108,0,4.156,0.598,5.922,1.729l2.156-3.369C21.668,1.816,18.874,1,16,1 C11.078,1,6.716,3.393,3.979,7.065l2.859,2.859C8.811,6.959,12.18,5,16,5z"/><path fill="#0f518c" d="M31,16v-2H16v4h10.817c-0.415,2.253-1.521,4.267-3.087,5.816l2.826,2.826 C29.298,23.923,31,20.157,31,16z"/><path fill="#0f518c" d="M5,16c0-1.5,0.304-2.931,0.851-4.235L2.862,8.776C1.678,10.92,1,13.382,1,16 c0,3.667,1.326,7.026,3.519,9.635l2.844-2.844C5.888,20.918,5,18.563,5,16z"/></svg>